<?xml version="1.0" encoding="UTF-8" standalone="no"?>
<!-- Generator: Adobe Illustrator 14.0.0, SVG Export Plug-In . SVG Version: 6.00 Build 43363)  -->

<svg
   xmlns:osb="http://www.openswatchbook.org/uri/2009/osb"
   xmlns:dc="http://purl.org/dc/elements/1.1/"
   xmlns:cc="http://creativecommons.org/ns#"
   xmlns:rdf="http://www.w3.org/1999/02/22-rdf-syntax-ns#"
   xmlns:svg="http://www.w3.org/2000/svg"
   xmlns="http://www.w3.org/2000/svg"
   xmlns:sodipodi="http://sodipodi.sourceforge.net/DTD/sodipodi-0.dtd"
   xmlns:inkscape="http://www.inkscape.org/namespaces/inkscape"
   version="1.1"
   x="0px"
   y="0px"
   width="512"
   height="512"
   viewBox="0 0 512.00001 511.99998"
   enable-background="new 0 0 666.24 275.907"
   xml:space="preserve"
   id="svg2"
   inkscape:version="0.48.2 r9819"
   sodipodi:docname="icon.svg"
   inkscape:export-filename="/Users/Admin/Desktop/ic_launcher.png"
   inkscape:export-xdpi="6.3299999"
   inkscape:export-ydpi="6.3299999"><metadata
   id="metadata32"><rdf:RDF><cc:Work
       rdf:about=""><dc:format>image/svg+xml</dc:format><dc:type
         rdf:resource="http://purl.org/dc/dcmitype/StillImage" /><dc:title></dc:title></cc:Work></rdf:RDF></metadata><defs
   id="defs30"><linearGradient
   id="linearGradient5337"
   osb:paint="solid"><stop
     style="stop-color:#87aade;stop-opacity:1;"
     offset="0"
     id="stop5339" /></linearGradient><filter
   id="filter4057"
   inkscape:label="Drop shadow"
   width="1.5"
   height="1.5"
   x="-.25"
   y="-.25"><feGaussianBlur
     id="feGaussianBlur4059"
     in="SourceAlpha"
     stdDeviation="20"
     result="blur" /><feColorMatrix
     id="feColorMatrix4061"
     result="bluralpha"
     type="matrix"
     values="1 0 0 0 0 0 1 0 0 0 0 0 1 0 0 0 0 0 0.75 0 " /><feOffset
     id="feOffset4063"
     in="bluralpha"
     dx="0"
     dy="0"
     result="offsetBlur" /><feMerge
     id="feMerge4065"><feMergeNode
       id="feMergeNode4067"
       in="offsetBlur" /><feMergeNode
       id="feMergeNode4069"
       in="SourceGraphic" /></feMerge></filter><filter
   id="filter4071"
   inkscape:label="Drop shadow"
   width="1.5"
   height="1.5"
   x="-.25"
   y="-.25"><feGaussianBlur
     id="feGaussianBlur4073"
     in="SourceAlpha"
     stdDeviation="20"
     result="blur" /><feColorMatrix
     id="feColorMatrix4075"
     result="bluralpha"
     type="matrix"
     values="1 0 0 0 0 0 1 0 0 0 0 0 1 0 0 0 0 0 0.75 0 " /><feOffset
     id="feOffset4077"
     in="bluralpha"
     dx="0"
     dy="0"
     result="offsetBlur" /><feMerge
     id="feMerge4079"><feMergeNode
       id="feMergeNode4081"
       in="offsetBlur" /><feMergeNode
       id="feMergeNode4083"
       in="SourceGraphic" /></feMerge></filter><filter
   id="filter4085"
   inkscape:label="Drop shadow"
   width="1.5"
   height="1.5"
   x="-.25"
   y="-.25"><feGaussianBlur
     id="feGaussianBlur4087"
     in="SourceAlpha"
     stdDeviation="20"
     result="blur" /><feColorMatrix
     id="feColorMatrix4089"
     result="bluralpha"
     type="matrix"
     values="1 0 0 0 0 0 1 0 0 0 0 0 1 0 0 0 0 0 0.75 0 " /><feOffset
     id="feOffset4091"
     in="bluralpha"
     dx="0"
     dy="0"
     result="offsetBlur" /><feMerge
     id="feMerge4093"><feMergeNode
       id="feMergeNode4095"
       in="offsetBlur" /><feMergeNode
       id="feMergeNode4097"
       in="SourceGraphic" /></feMerge></filter><filter
   id="filter4099"
   inkscape:label="Drop shadow"
   width="1.5"
   height="1.5"
   x="-.25"
   y="-.25"><feGaussianBlur
     id="feGaussianBlur4101"
     in="SourceAlpha"
     stdDeviation="20"
     result="blur" /><feColorMatrix
     id="feColorMatrix4103"
     result="bluralpha"
     type="matrix"
     values="1 0 0 0 0 0 1 0 0 0 0 0 1 0 0 0 0 0 0.75 0 " /><feOffset
     id="feOffset4105"
     in="bluralpha"
     dx="0"
     dy="0"
     result="offsetBlur" /><feMerge
     id="feMerge4107"><feMergeNode
       id="feMergeNode4109"
       in="offsetBlur" /><feMergeNode
       id="feMergeNode4111"
       in="SourceGraphic" /></feMerge></filter><inkscape:perspective
   id="perspective10"
   inkscape:persp3d-origin="372.04724 : 350.78739 : 1"
   inkscape:vp_z="744.09448 : 526.18109 : 1"
   inkscape:vp_y="0 : 1000 : 0"
   inkscape:vp_x="0 : 526.18109 : 1"
   sodipodi:type="inkscape:persp3d" />
	
<filter
   id="filter4231"
   inkscape:label="Drop shadow"
   width="1.5"
   height="1.5"
   x="-.25"
   y="-.25"><feGaussianBlur
     id="feGaussianBlur4233"
     in="SourceAlpha"
     stdDeviation="10"
     result="blur" /><feColorMatrix
     id="feColorMatrix4235"
     result="bluralpha"
     type="matrix"
     values="1 0 0 0 0 0 1 0 0 0 0 0 1 0 0 0 0 0 0.75 0 " /><feOffset
     id="feOffset4237"
     in="bluralpha"
     dx="0"
     dy="0"
     result="offsetBlur" /><feMerge
     id="feMerge4239"><feMergeNode
       id="feMergeNode4241"
       in="offsetBlur" /><feMergeNode
       id="feMergeNode4243"
       in="SourceGraphic" /></feMerge></filter><filter
   id="filter4245"
   inkscape:label="Drop shadow"
   width="1.5"
   height="1.5"
   x="-.25"
   y="-.25"><feGaussianBlur
     id="feGaussianBlur4247"
     in="SourceAlpha"
     stdDeviation="10"
     result="blur" /><feColorMatrix
     id="feColorMatrix4249"
     result="bluralpha"
     type="matrix"
     values="1 0 0 0 0 0 1 0 0 0 0 0 1 0 0 0 0 0 0.75 0 " /><feOffset
     id="feOffset4251"
     in="bluralpha"
     dx="0"
     dy="0"
     result="offsetBlur" /><feMerge
     id="feMerge4253"><feMergeNode
       id="feMergeNode4255"
       in="offsetBlur" /><feMergeNode
       id="feMergeNode4257"
       in="SourceGraphic" /></feMerge></filter><filter
   id="filter4259"
   inkscape:label="Drop shadow"
   width="1.5"
   height="1.5"
   x="-.25"
   y="-.25"><feGaussianBlur
     id="feGaussianBlur4261"
     in="SourceAlpha"
     stdDeviation="10"
     result="blur" /><feColorMatrix
     id="feColorMatrix4263"
     result="bluralpha"
     type="matrix"
     values="1 0 0 0 0 0 1 0 0 0 0 0 1 0 0 0 0 0 0.75 0 " /><feOffset
     id="feOffset4265"
     in="bluralpha"
     dx="0"
     dy="0"
     result="offsetBlur" /><feMerge
     id="feMerge4267"><feMergeNode
       id="feMergeNode4269"
       in="offsetBlur" /><feMergeNode
       id="feMergeNode4271"
       in="SourceGraphic" /></feMerge></filter><filter
   id="filter4273"
   inkscape:label="Drop shadow"
   width="1.5"
   height="1.5"
   x="-.25"
   y="-.25"><feGaussianBlur
     id="feGaussianBlur4275"
     in="SourceAlpha"
     stdDeviation="10"
     result="blur" /><feColorMatrix
     id="feColorMatrix4277"
     result="bluralpha"
     type="matrix"
     values="1 0 0 0 0 0 1 0 0 0 0 0 1 0 0 0 0 0 0.75 0 " /><feOffset
     id="feOffset4279"
     in="bluralpha"
     dx="0"
     dy="0"
     result="offsetBlur" /><feMerge
     id="feMerge4281"><feMergeNode
       id="feMergeNode4283"
       in="offsetBlur" /><feMergeNode
       id="feMergeNode4285"
       in="SourceGraphic" /></feMerge></filter><filter
   id="filter4036"
   inkscape:label="Drop shadow"
   width="1.5"
   height="1.5"
   x="-.25"
   y="-.25"><feGaussianBlur
     id="feGaussianBlur4038"
     in="SourceAlpha"
     stdDeviation="10"
     result="blur" /><feColorMatrix
     id="feColorMatrix4040"
     result="bluralpha"
     type="matrix"
     values="1 0 0 0 0 0 1 0 0 0 0 0 1 0 0 0 0 0 0.75 0 " /><feOffset
     id="feOffset4042"
     in="bluralpha"
     dx="0"
     dy="0"
     result="offsetBlur" /><feMerge
     id="feMerge4044"><feMergeNode
       id="feMergeNode4046"
       in="offsetBlur" /><feMergeNode
       id="feMergeNode4048"
       in="SourceGraphic" /></feMerge></filter><filter
   id="filter4052"
   inkscape:label="Drop shadow"
   width="1.5"
   height="1.5"
   x="-.25"
   y="-.25"><feGaussianBlur
     id="feGaussianBlur4054"
     in="SourceAlpha"
     stdDeviation="10"
     result="blur" /><feColorMatrix
     id="feColorMatrix4056"
     result="bluralpha"
     type="matrix"
     values="1 0 0 0 0 0 1 0 0 0 0 0 1 0 0 0 0 0 0.75 0 " /><feOffset
     id="feOffset4058"
     in="bluralpha"
     dx="0"
     dy="0"
     result="offsetBlur" /><feMerge
     id="feMerge4060"><feMergeNode
       id="feMergeNode4062"
       in="offsetBlur" /><feMergeNode
       id="feMergeNode4064"
       in="SourceGraphic" /></feMerge></filter></defs><sodipodi:namedview
   pagecolor="#ffffff"
   bordercolor="#666666"
   borderopacity="1"
   objecttolerance="10"
   gridtolerance="10"
   guidetolerance="10"
   inkscape:pageopacity="0"
   inkscape:pageshadow="2"
   inkscape:window-width="910"
   inkscape:window-height="652"
   id="namedview28"
   showgrid="false"
   inkscape:zoom="0.74718297"
   inkscape:cx="276.50087"
   inkscape:cy="268.31001"
   inkscape:window-x="104"
   inkscape:window-y="58"
   inkscape:window-maximized="0"
   inkscape:current-layer="svg2"
   showguides="true"
   inkscape:guide-bbox="true" />


<g
   id="g4226"
   style="filter:url(#filter4259)"
   transform="translate(-57.549493,-78.827529)"><path
     inkscape:connector-curvature="0"
     id="path3009"
     d="m 309.98481,139.80394 c -96.45677,0 -174.65624,66.00654 -174.65624,147.4375 0,17.84676 3.74414,34.94826 10.625,50.78125 l 328.06249,0 c 6.88086,-15.83299 10.625,-32.93449 10.625,-50.78125 0,-81.43096 -78.19948,-147.4375 -174.65625,-147.4375 z"
     style="fill:#ffdd55;fill-opacity:1;stroke:#000000;stroke-width:1.00590873;stroke-opacity:0" /><path
     transform="translate(96.361941,-54.872788)"
     d="m 149.89635,297.86237 c 0,13.3048 -10.78568,24.09048 -24.09049,24.09048 -13.3048,0 -24.09048,-10.78568 -24.09048,-24.09048 0,-13.30481 10.78568,-24.09049 24.09048,-24.09049 13.30481,0 24.09049,10.78568 24.09049,24.09049 z"
     sodipodi:ry="24.090485"
     sodipodi:rx="24.090485"
     sodipodi:cy="297.86237"
     sodipodi:cx="125.80586"
     id="path3827"
     style="opacity:0.73999999;fill:#241f1c;fill-opacity:1;stroke:#000000;stroke-width:1;stroke-miterlimit:4;stroke-opacity:0;stroke-dasharray:none"
     sodipodi:type="arc" /><path
     sodipodi:type="arc"
     style="opacity:0.73999999;fill:#241f1c;fill-opacity:1;stroke:#000000;stroke-width:1;stroke-miterlimit:4;stroke-opacity:0;stroke-dasharray:none"
     id="path3829"
     sodipodi:cx="125.80586"
     sodipodi:cy="297.86237"
     sodipodi:rx="24.090485"
     sodipodi:ry="24.090485"
     d="m 149.89635,297.86237 c 0,13.3048 -10.78568,24.09048 -24.09049,24.09048 -13.3048,0 -24.09048,-10.78568 -24.09048,-24.09048 0,-13.30481 10.78568,-24.09049 24.09048,-24.09049 13.30481,0 24.09049,10.78568 24.09049,24.09049 z"
     transform="translate(235.55141,-53.534427)" /></g><g
   id="g4294"
   transform="translate(-57.549493,-78.827529)"><path
     inkscape:connector-curvature="0"
     id="path3868"
     d="m 154.68245,409.2282 c 35.78191,45.93383 102.23199,70.60144 172.23306,58.25836 70.00107,-12.34307 124.03768,-58.25574 141.95138,-113.65756 l -314.18444,55.3992 z"
     style="fill:#ffdd55;fill-opacity:1;stroke:#000000;stroke-width:1.00590873;stroke-opacity:0;filter:url(#filter4245)" /><path
     sodipodi:nodetypes="ccc"
     inkscape:connector-curvature="0"
     id="path3882"
     d="M 155.24979,410.2846 467.6421,353.99228 c -93.66815,2.1795 -187.54572,8.58186 -312.39231,56.29232 z"
     style="opacity:0.73999999;fill:#2b2200;stroke:#000000;stroke-width:1px;stroke-linecap:butt;stroke-linejoin:miter;stroke-opacity:1;filter:url(#filter4245)" /></g><g
   id="g4097"><path
     inkscape:connector-curvature="0"
     id="path3226"
     d="m 151.91335,79.7755 c -41.80606,0 -75.700286,33.89423 -75.700286,75.70029 0,41.80607 33.894226,75.67411 75.700286,75.67411 41.80607,0 75.67411,-33.86804 75.67411,-75.67411 0,-41.80606 -33.86804,-75.70029 -75.67411,-75.70029 z m -0.57607,26.91798 c 29.10942,0 52.71004,23.57444 52.71004,52.68385 0,29.10941 -23.60062,52.71003 -52.71004,52.71003 -29.10941,0 -52.710026,-23.60062 -52.710026,-52.71003 0,-29.10941 23.600616,-52.68385 52.710026,-52.68385 z"
     style="opacity:0.73999999;fill:#000000;fill-opacity:0.99607843;stroke:#000000;stroke-width:0.83791405;stroke-opacity:0" /><path
     style="opacity:0.73999999;fill:#000000;fill-opacity:0.99607843;stroke:#000000;stroke-width:0.83791405;stroke-opacity:0"
     d="m 320.54675,78.43714 c -41.80606,0 -75.70029,33.89423 -75.70029,75.70029 0,41.80607 33.89423,75.67411 75.70029,75.67411 41.80607,0 75.67411,-33.86804 75.67411,-75.67411 0,-41.80606 -33.86804,-75.70029 -75.67411,-75.70029 z m -0.57607,26.91798 c 29.10942,0 52.71004,23.57444 52.71004,52.68385 0,29.10941 -23.60062,52.71003 -52.71004,52.71003 -29.10941,0 -52.71003,-23.60062 -52.71003,-52.71003 0,-29.10941 23.60062,-52.68385 52.71003,-52.68385 z"
     id="path3255"
     inkscape:connector-curvature="0" /><path
     sodipodi:nodetypes="cscccc"
     inkscape:connector-curvature="0"
     id="path3257"
     d="m 203.43076,103.93583 c 0,0 8.30239,9.77579 29.47683,10.40714 24.7071,0.73668 35.88906,-12.36445 33.4261,-10.40714 -13.59252,9.74569 -22.40739,29.32048 -20.0754,62.90293 l -20.0754,0 c 1.51516,-22.6605 3.69633,-36.64828 -22.75213,-62.90293 z"
     style="opacity:0.73999999;fill:#000000;fill-opacity:1;stroke:#000000;stroke-width:1px;stroke-linecap:butt;stroke-linejoin:miter;stroke-opacity:1" /></g><path
   style="opacity:0.73999999000000005;fill:#000000;fill-opacity:1;stroke:#000000;stroke-width:1;stroke-opacity:0;filter:url(#filter4036)"
   d="m 254.29918,323.27756 c -131.56976,0 -238.249996,106.68024 -238.249996,238.25 0,131.56976 106.680236,238.21875 238.249996,238.21875 131.56977,0 238.21875,-106.64899 238.21875,-238.21875 0,-131.56976 -106.64898,-238.25 -238.21875,-238.25 z m -1.34375,25.375 c 117.55522,0 212.84375,95.31979 212.84375,212.875 0,117.55521 -95.28853,212.84375 -212.84375,212.84375 -117.55521,0 -212.843746,-95.28854 -212.843746,-212.84375 0,-117.55521 95.288536,-212.875 212.843746,-212.875 z"
   id="path4029"
   inkscape:connector-curvature="0" /><g
   id="g4076"><path
     transform="matrix(0.70710678,-0.70710678,0.70710678,0.70710678,101.75591,172.51069)"
     d="m -152.57307,155.327 a 16.060324,30.113106 0 1 1 -32.12065,0 16.060324,30.113106 0 1 1 32.12065,0 z"
     sodipodi:ry="30.113106"
     sodipodi:rx="16.060324"
     sodipodi:cy="155.327"
     sodipodi:cx="-168.63339"
     id="path4050"
     style="opacity:1;fill:#ffdd55;fill-opacity:1;stroke:#000000;stroke-opacity:0;filter:url(#filter4052)"
     sodipodi:type="arc" /><path
     sodipodi:type="arc"
     style="opacity:1;fill:#ffdd55;fill-opacity:1;stroke:#000000;stroke-opacity:0;filter:url(#filter4052)"
     id="path4066"
     sodipodi:cx="-168.63339"
     sodipodi:cy="155.327"
     sodipodi:rx="16.060324"
     sodipodi:ry="30.113106"
     d="m -152.57307,155.327 a 16.060324,30.113106 0 1 1 -32.12065,0 16.060324,30.113106 0 1 1 32.12065,0 z"
     transform="matrix(0.70710678,-0.70710678,0.70710678,0.70710678,81.680506,195.26282)" /><path
     transform="matrix(0.70710678,-0.70710678,0.70710678,0.70710678,62.943462,216.67658)"
     d="m -152.57307,155.327 a 16.060324,30.113106 0 1 1 -32.12065,0 16.060324,30.113106 0 1 1 32.12065,0 z"
     sodipodi:ry="30.113106"
     sodipodi:rx="16.060324"
     sodipodi:cy="155.327"
     sodipodi:cx="-168.63339"
     id="path4068"
     style="opacity:1;fill:#ffdd55;fill-opacity:1;stroke:#000000;stroke-opacity:0;filter:url(#filter4052)"
     sodipodi:type="arc" /></g><g
   id="g4081"
   transform="matrix(0,-1,1,0,-6.7689813,484.56362)"><path
     sodipodi:type="arc"
     style="fill:#ffdd55;fill-opacity:1;stroke:#000000;stroke-opacity:0;filter:url(#filter4052)"
     id="path4083"
     sodipodi:cx="-168.63339"
     sodipodi:cy="155.327"
     sodipodi:rx="16.060324"
     sodipodi:ry="30.113106"
     d="m -152.57307,155.327 c 0,16.631 -7.19045,30.1131 -16.06032,30.1131 -8.86987,0 -16.06033,-13.4821 -16.06033,-30.1131 0,-16.63101 7.19046,-30.11311 16.06033,-30.11311 8.86987,0 16.06032,13.4821 16.06032,30.11311 z"
     transform="matrix(0.70710678,-0.70710678,0.70710678,0.70710678,101.75591,172.51069)" /><path
     transform="matrix(0.70710678,-0.70710678,0.70710678,0.70710678,81.680506,195.26282)"
     d="m -152.57307,155.327 c 0,16.631 -7.19045,30.1131 -16.06032,30.1131 -8.86987,0 -16.06033,-13.4821 -16.06033,-30.1131 0,-16.63101 7.19046,-30.11311 16.06033,-30.11311 8.86987,0 16.06032,13.4821 16.06032,30.11311 z"
     sodipodi:ry="30.113106"
     sodipodi:rx="16.060324"
     sodipodi:cy="155.327"
     sodipodi:cx="-168.63339"
     id="path4085"
     style="fill:#ffdd55;fill-opacity:1;stroke:#000000;stroke-opacity:0;filter:url(#filter4052)"
     sodipodi:type="arc" /><path
     sodipodi:type="arc"
     style="fill:#ffdd55;fill-opacity:1;stroke:#000000;stroke-opacity:0;filter:url(#filter4052)"
     id="path4087"
     sodipodi:cx="-168.63339"
     sodipodi:cy="155.327"
     sodipodi:rx="16.060324"
     sodipodi:ry="30.113106"
     d="m -152.57307,155.327 c 0,16.631 -7.19045,30.1131 -16.06032,30.1131 -8.86987,0 -16.06033,-13.4821 -16.06033,-30.1131 0,-16.63101 7.19046,-30.11311 16.06033,-30.11311 8.86987,0 16.06032,13.4821 16.06032,30.11311 z"
     transform="matrix(0.70710678,-0.70710678,0.70710678,0.70710678,62.943462,216.67658)" /></g></svg>